<svg xmlns="http://www.w3.org/2000/svg" viewBox="0 0 1440 320"><path fill="#FEDD02" fill-opacity="1" d="M0,192L24,181.3C48,171,96,149,144,138.7C192,128,240,128,288,128C336,128,384,128,432,144C480,160,528,192,576,192C624,192,672,160,720,133.3C768,107,816,85,864,69.3C912,53,960,43,1008,64C1056,85,1104,139,1152,165.3C1200,192,1248,192,1296,176C1344,160,1392,128,1416,112L1440,96L1440,0L1416,0C1392,0,1344,0,1296,0C1248,0,1200,0,1152,0C1104,0,1056,0,1008,0C960,0,912,0,864,0C816,0,768,0,720,0C672,0,624,0,576,0C528,0,480,0,432,0C384,0,336,0,288,0C240,0,192,0,144,0C96,0,48,0,24,0L0,0Z"></path></svg>